<?xml version="1.0" encoding="UTF-8"?>
<svg version="1.1" xmlns="http://www.w3.org/2000/svg" width="100" height="100">
<path d="M0 0 C23.12140344 -2.05615512 23.12140344 -2.05615512 29.16357422 1.14697266 C32.86007198 4.44189185 34.84636663 8.60739115 37 13 C38.17078987 14.59082582 39.37360379 16.15927122 40.625 17.6875 C43 20.75138122 43 20.75138122 43 23 C43.66 23 44.32 23 45 23 C45.23332031 22.44828125 45.46664062 21.8965625 45.70703125 21.328125 C47.63749177 17.85212962 50.33664336 15.17609118 53.05957031 12.30151367 C55.11400764 10.11602748 57.0169854 7.9753885 58.72265625 5.50390625 C60.36999611 3.14033167 61.57920729 1.57993235 64 0 C68.74190986 -0.65351569 73.24726311 -0.4746145 78 0 C77.195625 0.928125 76.39125 1.85625 75.5625 2.8125 C72.93581981 5.86777603 70.39918448 8.98471221 67.875 12.125 C62.5384272 18.68396726 56.78796199 24.83988479 51 31 C54.50112539 36.66629504 58.43962423 41.89423078 62.625 47.0625 C67.0709435 52.55785779 71.43000091 58.10704243 75.6875 63.75 C76.46311279 64.76912476 76.46311279 64.76912476 77.25439453 65.80883789 C79.28514214 68.51524316 80.92257939 70.76773816 82 74 C57.72428957 76.07484705 57.72428957 76.07484705 52.36328125 71.75 C49.84232222 68.63229221 47.93270029 65.50968888 46 62 C44.36013753 59.69581604 42.61489994 57.4790677 40.875 55.25 C39.58002061 53.50244996 38.28706225 51.75338916 37 50 C35.59293543 51.48857136 34.1869018 52.97812866 32.78564453 54.47216797 C31.58777149 55.7486545 30.38555692 57.02107973 29.17919922 58.28955078 C25.72635624 61.96569808 22.87067035 65.6283632 20.125 69.875 C17.53714744 73.30306443 16.50575402 73.91932758 12.1796875 74.609375 C8.41147601 74.72356323 4.74115499 74.4384166 1 74 C4.37386109 70.0205741 7.79990889 66.10768778 11.3125 62.25 C15.36164228 57.77679214 19.18748619 53.15552727 22.95703125 48.4453125 C25 46 25 46 27.32421875 43.9296875 C27.87722656 43.29289062 28.43023437 42.65609375 29 42 C28.61110766 38.75671338 27.30483103 36.78661511 25.296875 34.26953125 C24.73444092 33.55676025 24.17200684 32.84398926 23.5925293 32.10961914 C22.98449463 31.35156982 22.37645996 30.59352051 21.75 29.8125 C20.47991027 28.20356571 19.21039362 26.59417888 17.94140625 24.984375 C17.29059082 24.16259766 16.63977539 23.34082031 15.96923828 22.49414062 C12.84648845 18.53901884 9.7612871 14.55573301 6.6875 10.5625 C6.13094727 9.84747314 5.57439453 9.13244629 5.00097656 8.39575195 C4.23285645 7.39741333 4.23285645 7.39741333 3.44921875 6.37890625 C2.99893311 5.7969751 2.54864746 5.21504395 2.0847168 4.61547852 C1 3 1 3 0 0 Z M16 8 C19.94441643 14.38372659 24.48324471 20.18386207 29.19677734 26.00292969 C32.85678613 30.53522009 36.39795892 35.13870179 39.875 39.8125 C40.8645065 41.13156805 41.85409133 42.45057736 42.84375 43.76953125 C44.50698155 45.9898184 46.15829887 48.2170574 47.79296875 50.45849609 C49.63688721 52.98518624 51.50422254 55.4931582 53.375 58 C53.94589355 58.79639893 54.51678711 59.59279785 55.10498047 60.41333008 C58.32199763 64.91180202 58.32199763 64.91180202 63.4140625 66.5 C64.26742187 66.335 65.12078125 66.17 66 66 C62.05930959 59.91251556 57.87499017 54.12139725 53.375 48.4375 C48.79825371 42.60322576 44.25991692 36.74605328 39.8125 30.8125 C39.32676514 30.16982178 38.84103027 29.52714355 38.34057617 28.86499023 C35.82538491 25.51912452 33.39605016 22.13806397 31.0546875 18.66796875 C30.57281982 17.96889404 30.09095215 17.26981934 29.59448242 16.54956055 C28.68141282 15.21948605 27.78701208 13.87632711 26.9152832 12.51879883 C25.56202587 10.45743865 25.56202587 10.45743865 23 8 C19.28093223 7.45605214 19.28093223 7.45605214 16 8 Z " fill="#FFFFFF" transform="translate(9,13)"/>
</svg>
